<svg width="47" height="23" viewBox="0 0 47 23" fill="none" xmlns="http://www.w3.org/2000/svg">
<path d="M37.076 7.74805C36.252 7.74805 35.582 8.42005 35.582 9.24705V10.707H38.573V9.24705C38.573 8.42005 37.9 7.74805 37.076 7.74805Z" fill="#496C74"/>
<path d="M41.227 0.63501H5.773C2.6 0.63501 0 3.23701 0 6.41001V16.59C0 19.768 2.6 22.365 5.773 22.365H41.227C44.4 22.365 47 19.768 47 16.59V6.41001C47 3.23701 44.4 0.63501 41.227 0.63501ZM12.56 13.077L13.945 14.585L11.546 16.385L10.562 14.585C10.417 14.328 10.19 13.824 9.871 13.077C9.522 13.898 9.29 14.398 9.175 14.585L8.177 16.385L5.711 14.585L7.202 13.077C7.622 12.662 8.029 12.306 8.431 12.014C8.021 11.977 7.482 11.901 6.817 11.776L4.752 11.44L5.71 8.62801L7.562 9.47001C7.757 9.55801 8.242 9.83501 9.014 10.294C8.849 9.54701 8.743 8.99201 8.695 8.62801L8.432 6.61501H11.373L11.135 8.62801C11.083 9.11801 10.969 9.67301 10.8 10.294C11.139 10.124 11.363 10.011 11.469 9.94901C11.841 9.74201 12.128 9.59901 12.321 9.50701L14.174 8.62801L15.092 11.44L13.043 11.868C12.668 11.94 12.112 11.987 11.373 12.014C11.874 12.406 12.266 12.758 12.56 13.077ZM26.137 13.077L27.524 14.585L25.125 16.384L24.142 14.585C23.997 14.328 23.77 13.824 23.452 13.077C23.102 13.898 22.872 14.398 22.757 14.585L21.757 16.384L19.292 14.585L20.783 13.077C21.203 12.662 21.609 12.306 22.012 12.014C21.604 11.977 21.063 11.901 20.398 11.776L18.332 11.44L19.291 8.62801L21.144 9.47001C21.337 9.55801 21.824 9.83501 22.595 10.294C22.426 9.54701 22.32 8.99201 22.275 8.62801L22.011 6.61701H24.953L24.714 8.62801C24.66 9.11801 24.548 9.67301 24.381 10.294C24.718 10.124 24.942 10.011 25.049 9.94901C25.419 9.74201 25.707 9.59901 25.901 9.50701L27.755 8.62801L28.674 11.44L26.623 11.868C26.248 11.94 25.694 11.987 24.954 12.014C25.451 12.406 25.844 12.758 26.137 13.077ZM41.35 15.625C41.35 16.244 40.843 16.75 40.225 16.75H33.93C33.311 16.75 32.805 16.244 32.805 15.625V11.831C32.805 11.212 33.311 10.706 33.93 10.706H34.082V9.24601C34.082 7.59301 35.425 6.24801 37.076 6.24801C38.728 6.24801 40.072 7.59201 40.072 9.24601V10.706H40.224C40.841 10.706 41.349 11.212 41.349 11.831V15.625H41.35Z" fill="#496C74"/>
</svg>
